<svg width="39" height="38" viewBox="0 0 39 38" fill="none" xmlns="http://www.w3.org/2000/svg">
<path d="M34.6125 17.1633C35.2462 17.1633 35.75 16.6725 35.75 16.055V14.5825C35.75 8.09083 33.7187 6.11167 27.0562 6.11167H11.9437C5.28125 6.11167 3.25 8.09083 3.25 14.5825V15.3267C3.25 15.9442 3.75375 16.435 4.3875 16.435C5.85 16.435 7.03625 17.5908 7.03625 19.0158C7.03625 20.4408 5.85 21.5808 4.3875 21.5808C3.75375 21.5808 3.25 22.0717 3.25 22.6892V23.4333C3.25 29.925 5.28125 31.9042 11.9437 31.9042H27.0562C33.7187 31.9042 35.75 29.925 35.75 23.4333C35.75 22.8158 35.2462 22.325 34.6125 22.325C33.15 22.325 31.9638 21.1692 31.9638 19.7442C31.9638 18.3192 33.15 17.1633 34.6125 17.1633Z" fill="#1596C1"/>
<path d="M24.3751 25.1433C23.4651 25.1433 22.7339 24.4308 22.7339 23.56C22.7339 22.6892 23.4651 21.9767 24.3589 21.9767C25.2526 21.9767 25.9839 22.6892 25.9839 23.56C25.9839 24.4308 25.2851 25.1433 24.3751 25.1433Z" fill="black"/>
<path d="M14.6251 17.2267C13.7151 17.2267 12.9839 16.5142 12.9839 15.6433C12.9839 14.7725 13.7151 14.06 14.6089 14.06C15.5026 14.06 16.2339 14.7725 16.2339 15.6433C16.2339 16.5142 15.5351 17.2267 14.6251 17.2267Z" fill="black"/>
<path d="M14.0238 26.0142C13.715 26.0142 13.4063 25.9033 13.1625 25.6658C12.6913 25.2067 12.6913 24.4467 13.1625 23.9875L24.0988 13.3317C24.57 12.8725 25.35 12.8725 25.8213 13.3317C26.2925 13.7908 26.2925 14.5508 25.8213 15.01L14.885 25.6658C14.6575 25.9033 14.3325 26.0142 14.0238 26.0142Z" fill="black"/>
</svg>
