<svg width="305" height="95" viewBox="0 0 305 95" fill="none" xmlns="http://www.w3.org/2000/svg">
<path d="M105.3 1.5C101.9 3.9 101 9.1 100.9 26.5C100.8 38.5 100.6 41.5 99.9 38.6C98.2 31.4 92 21.2 85.9 15.6C65.8 -3 34.7 -2.4 14.9 17C4.7 27.1 0 38 0 52C0 61.6 1.8 69.1 5.8 76C8.7 81.1 16.7 90 18.4 90C19.3 90 58.8 34.6 59.9 31.8C60.1 31.2 59.2 29.4 58 27.7L55.9 24.5L58.5 27.4C60.7 29.8 61.4 30.1 62 28.9C62.5 28.1 63.6 26.6 64.5 25.5C65.4 24.4 65.2 25.2 64 27.2L61.9 30.9L65.3 35.7C70.3 42.6 74.4 50.6 76.9 57.8C79.9 66.6 79.9 82.3 76.9 88.1C75.8 90.4 75.1 92.4 75.4 92.7C76.3 93.6 86.3 85.4 89.9 80.9C94.6 75.1 98.9 66.3 99.7 60.5C100.3 56.8 100.6 60.3 101 74L101.5 92.5H127.5C152.3 92.5 153.8 92.3 159.2 90.2C166.2 87.4 175 79.6 177.9 73.7L180 69.5V82.2V95H215.5H251V85.5V76H226H201V68.5V61L220.7 60.8L240.4 60.5L243.2 55.7L246 50.9L244.1 47.1C243 45.1 241.5 42.8 240.7 42.2C239.8 41.4 232.9 41 220.4 40.8L201.5 40.5L201.2 30.8L200.9 21L221.2 20.8L241.5 20.5V11V1.5H213.3C179.5 1.5 181 0.999999 180.2 13.4L179.7 21L177 16.7C172.6 9.7 166.5 5.3 157.7 2.5C150.4 0.199999 148.5 -1.41561e-06 128.7 -1.41561e-06C111.2 -1.41561e-06 107.1 0.299999 105.3 1.5ZM148.1 19.5C156 23.5 160.1 29.5 161.8 40C164.1 53.5 159.8 65.5 150.6 71.2C145.7 74.2 145 74.4 134.8 74.4C129 74.5 123.8 74.1 123.3 73.7C122.9 73.2 122.4 61.2 122.2 47C121.9 21.5 121.9 21.1 124.1 18.9C126.1 16.9 126.9 16.8 135.5 17.3C141.2 17.6 146 18.5 148.1 19.5Z" fill="black"/>
<path d="M244 10.9V21H263.4H282.8L284 24C286 28.7 284.7 36 281.5 38.7C279 40.9 278.1 41 262.4 41C250.9 41 246 41.3 246 42.1C246 42.8 247 44.9 248.2 46.8L250.4 50.3L248.2 54.1C244.2 61.1 244 61 262.3 61C283.5 61 282.9 60.5 283.9 81L284.5 93.5L293.4 93.8C298.3 94 302.6 93.7 303 93.3C303.4 92.9 303.4 85.7 302.9 77.4C302.1 60.9 300.5 55 295.8 51.4L293.4 49.6L297.1 46.3C304.8 39.3 306.3 23.9 300.4 13C298 8.39999 296.5 7.09999 291.6 4.49999L285.6 1.49999L264.8 1.19999L244 0.799986V10.9Z" fill="black"/>
<path d="M41.6 63.1C31.2 79.6 23.1 93.4 23.5 93.8C24.1 94.4 24.9 93.6 28.5 88.7C29.7 87 30.1 87 37 88.6C50.3 91.6 62.6 89.4 68.7 82.8C74 77.1 75.6 64.9 72.4 53.9C70.4 47.2 63 33 61.5 33C60.9 33 51.9 46.5 41.6 63.1Z" fill="black"/>
</svg>
