<svg width="40" height="39" viewBox="0 0 40 39" fill="none" xmlns="http://www.w3.org/2000/svg">
<path d="M9.2 13.6C12.0719 13.6 14.4 11.2719 14.4 8.4C14.4 5.52812 12.0719 3.2 9.2 3.2C6.32812 3.2 4 5.52812 4 8.4C4 11.2719 6.32812 13.6 9.2 13.6Z" fill="black"/>
<path d="M8.8 35.2C11.451 35.2 13.6 33.051 13.6 30.4C13.6 27.749 11.451 25.6 8.8 25.6C6.14903 25.6 4 27.749 4 30.4C4 33.051 6.14903 35.2 8.8 35.2Z" fill="black"/>
<path d="M31.1999 35.2C33.8509 35.2 35.9999 33.051 35.9999 30.4C35.9999 27.749 33.8509 25.6 31.1999 25.6C28.5489 25.6 26.3999 27.749 26.3999 30.4C26.3999 33.051 28.5489 35.2 31.1999 35.2Z" fill="black"/>
<path d="M31.4716 25.568C29.9196 21.12 25.7276 18.128 21.0076 18.128C20.9916 18.128 20.9756 18.128 20.9596 18.128L15.3116 18.144C12.8796 18.176 10.7036 16.528 10.0476 14.16V11.2C10.0476 10.528 9.50361 9.98401 8.81561 9.98401C8.12761 9.98401 7.59961 10.528 7.59961 11.2V29.152C7.59961 29.824 8.14361 30.368 8.81561 30.368C9.48761 30.368 10.0476 29.824 10.0476 29.152V18.56C11.4556 19.808 13.2956 20.576 15.2956 20.576C15.3116 20.576 15.3116 20.576 15.3276 20.576L20.9756 20.56C20.9916 20.56 20.9916 20.56 21.0076 20.56C24.6716 20.56 27.9516 22.88 29.1516 26.352C29.3276 26.864 29.8076 27.168 30.3036 27.168C30.4316 27.168 30.5756 27.152 30.7036 27.104C31.3596 26.912 31.6956 26.208 31.4716 25.568Z" fill="#1596C1"/>
</svg>
