<svg width="500" height="131" viewBox="0 0 500 131" fill="none" xmlns="http://www.w3.org/2000/svg">
<path d="M114 116.1V130.9H117.5H121V123C121 118.6 121.5 114.7 122 114.4C122.6 114 123 116.9 123 122.3V130.9H126.5H130V121C130 110 129.2 108.4 124 109.1C121.1 109.5 121 109.4 121 105.4C121 101.4 120.9 101.3 117.5 101.3H114V116.1Z" fill="#404040"/>
<path d="M25.1999 103.1C24.4999 103.8 23.9999 105.3 23.9999 106.5C23.9999 107.7 23.2999 108.9 22.4999 109.3C20.7999 109.9 20.9999 114.1 22.7999 114.7C23.5999 114.9 23.9999 117.9 23.9999 123V130.9H27.4999H30.9999V123C30.9999 116.9 31.2999 115 32.4999 114.5C33.2999 114.2 33.9999 112.8 33.9999 111.4C33.9999 109.8 33.3999 108.9 32.4999 108.9C31.6999 108.9 30.9999 108.4 30.9999 107.9C30.9999 107.3 31.6999 106.9 32.4999 106.9C33.3999 106.9 33.9999 106 33.9999 104.4C33.9999 102.2 33.5999 101.9 30.1999 101.9C28.0999 101.9 25.8999 102.4 25.1999 103.1Z" fill="#404040"/>
<path d="M49.9999 104.4C49.9999 106.6 50.3999 106.9 53.9999 106.9C57.5999 106.9 57.9999 106.6 57.9999 104.4C57.9999 102.1 57.5999 101.9 53.9999 101.9C50.3999 101.9 49.9999 102.1 49.9999 104.4Z" fill="#404040"/>
<path d="M3.99996 112.6C2.79996 118 1.39996 123.7 0.899957 125.3C-0.600043 130.1 -0.300043 130.9 3.39996 130.9C6.19996 130.9 6.89996 130.5 7.39996 128.4C8.29996 124.9 12.5 124.9 13.4 128.4C13.9 130.5 14.6 130.9 17.5 130.9C19.4 130.9 21 130.6 21 130.1C21 129.7 19.6 123.4 17.9 116.1L14.8 102.9H10.5H6.09996L3.99996 112.6ZM11.3 117.1C11.8 120.1 11.6 120.9 10.3 120.9C9.19996 120.9 8.89996 120.3 9.39996 118.6C9.69996 117.4 9.99996 115.5 9.99996 114.5C9.99996 111.6 10.6 112.9 11.3 117.1Z" fill="#404040"/>
<path d="M59.9999 106C59.9999 108.8 60.2999 109.1 62.4999 108.7L64.9999 108.2V119.5V130.9H68.4999H71.9999V119.6C71.9999 108.5 71.9999 108.2 74.2999 108.3C75.9999 108.4 76.5999 107.8 76.7999 105.6L77.0999 102.9H68.5999H59.9999V106Z" fill="#404040"/>
<path d="M35.9999 119.9V130.9H39.3999C43.3999 130.9 44.1999 129.4 43.9999 122.1C43.6999 115.2 43.7999 114.9 45.9999 114.9C47.4999 114.9 47.9999 114.2 47.9999 112.1C47.9999 109.3 47.8999 109.3 41.9999 109.1L35.9999 108.9V119.9Z" fill="#404040"/>
<path d="M50.6999 109.5C50.2999 109.9 49.9999 114.9 49.9999 120.6V131L53.7999 130.7L57.4999 130.4V119.9V109.4L54.4999 109.1C52.7999 108.9 51.0999 109.1 50.6999 109.5Z" fill="#404040"/>
<path d="M78.7999 110C77.2999 110.8 76.9999 112.5 76.9999 119.7C76.9999 125.2 77.3999 128.9 78.1999 129.7C79.7999 131.3 90.1999 131.3 91.7999 129.7C92.4999 129 92.9999 127.2 92.9999 125.7C92.9999 123.2 92.6999 122.9 89.4999 122.9C87.0999 122.9 85.9999 123.4 85.9999 124.4C85.9999 125.2 85.2999 125.9 84.4999 125.9C83.6999 125.9 82.9999 125 82.9999 123.9C82.9999 122.2 83.6999 121.9 87.9999 121.9H92.9999V116.4C92.9999 112.1 92.5999 110.8 91.0999 109.9C88.5999 108.6 80.9999 108.6 78.7999 110ZM86.2999 115.9C86.6999 117.4 86.2999 117.9 84.8999 117.9C83.0999 117.9 82.2999 115.9 83.6999 114.6C84.7999 113.4 85.7999 113.8 86.2999 115.9Z" fill="#404040"/>
<path d="M96.5999 111.1C95.4999 112.6 94.9999 115.6 94.9999 119.9C94.9999 129 96.4999 130.9 103.5 130.9C109.7 130.9 112.3 129.1 111.8 125C111.6 123 110.9 122.3 108.7 122.1C106.5 121.8 105.7 122.2 105.3 123.9C104.3 127.6 102.8 125.5 102.6 120.1C102.5 116.5 102.9 114.9 103.8 114.9C104.4 114.9 105 115.6 105 116.4C105 117.4 106.1 117.9 108.5 117.9C111.7 117.9 112 117.6 112 115.1C112 110.8 109.2 108.9 103.2 108.9C99.0999 108.9 97.7999 109.3 96.5999 111.1Z" fill="#404040"/>
<path d="M162.8 16.3003C154.1 25.2003 147 32.8003 147 33.2003C147 33.6003 148.9 33.9003 151.3 33.9003C155.6 33.9003 155.9 33.7003 167.6 21.2003L179.5 8.60027L191.5 21.2003C203.3 33.7003 203.6 33.9003 207.8 33.9003C210.2 33.9003 212 33.5003 211.8 33.0003C211.2 31.4003 180.2 -0.099732 179.3 0.00026805C178.9 0.100268 171.4 7.40027 162.8 16.3003Z" fill="#159696"/>
<path d="M170.1 25.0003L161.7 33.9003H166.3C170.5 33.9003 171.3 33.5003 175.2 29.3003L179.4 24.7003L183.8 29.4003C187.9 33.7003 188.5 34.0003 192.5 33.7003L196.8 33.4003L188.4 24.6003C183.8 19.8003 179.7 15.9003 179.3 16.0003C178.8 16.1003 174.7 20.1003 170.1 25.0003Z" fill="#159696"/>
<path d="M215 52.4003V84.9003H221C224.5 84.9003 227 84.5003 227 83.9003C227 83.2003 227.6 83.2003 228.9 83.9003C230 84.4003 233.1 84.9003 235.9 84.9003C239.7 84.9003 241.5 84.3003 243.7 82.5003L246.5 80.1003L246.8 62.9003C247.2 44.7003 246.6 41.1003 242.6 38.4003C240.2 36.7003 231.8 36.4003 228.9 37.9003C227.1 38.9003 227 38.6003 227 29.4003V19.9003H221H215V52.4003ZM234.4 47.5003C235.2 49.5003 235.2 72.2003 234.4 74.2003C234 75.2003 233 75.4003 230.7 75.0003L227.5 74.3003L227.2 60.9003C226.9 46.8003 227.2 45.9003 231.6 45.9003C232.8 45.9003 234.1 46.6003 234.4 47.5003Z" fill="#159696"/>
<path d="M2.5 26.4003C0.1 28.7003 0 29.4003 0 40.8003C0 51.9003 0.2 53.0003 2.3 55.5003C4.4 57.9003 5.5 58.2003 12.4 58.7003L20.1 59.2003L19.8 67.3003L19.5 75.4003H16C12.5 75.4003 12.5 75.4003 12.2 70.6003L11.9 65.9003H5.9H0V72.5003C0 78.4003 0.3 79.3003 2.9 82.0003C5.7 84.8003 6.2 84.9003 15.5 84.9003C25.5 84.9003 30.1 83.6003 31.4 80.4003C31.7 79.5003 32 73.2003 32 66.5003C32 54.6003 31.9 54.2003 29.4 51.8003C27.3 49.8003 25.6 49.4003 19.4 49.1003L12 48.7003V40.7003V32.8003L15.8 33.1003C19.5 33.4003 19.5 33.4003 19.8 38.1003L20.1 42.9003H26.1H32V35.9003C32 29.7003 31.7 28.5003 29.5 26.4003C27.2 24.0003 26.4 23.9003 16 23.9003C5.6 23.9003 4.8 24.0003 2.5 26.4003Z" fill="#159696"/>
<path d="M40 32.5003C40 36.6003 39.8 36.9003 37.4 36.9003C35 36.9003 34.9 37.1003 35.2 41.6003C35.5 45.8003 35.8 46.4003 37.8 46.3003C40 46.2003 40 46.3003 40 62.6003V79.1003L42.9 82.0003C45.5 84.6003 46.5 84.9003 51.9 84.9003H58V79.9003C58 75.0003 57.9 74.9003 55 74.9003H52V60.6003V46.2003L55 46.7003C58 47.1003 58 47.1003 58 42.0003C58 37.0003 57.9 36.9003 55 36.9003C52.1 36.9003 52 36.7003 52 32.5003V28.1003H46H40V32.5003Z" fill="#159696"/>
<path d="M125.7 28.5003C125.3 28.9003 125 31.0003 125 33.1003C125 36.4003 124.7 36.9003 122.7 36.9003C120.3 36.9003 120.3 36.5003 120.9 46.3003C121 46.7003 121.9 46.9003 122.9 46.6003C124.8 46.1003 124.9 46.9003 125.2 63.1003L125.5 80.1003L128.3 82.5003C130.6 84.5003 132.2 84.9003 137.6 84.9003H144V79.9003V74.9003H140.5H137V60.6003V46.4003H140.3C143.4 46.4003 143.5 46.3003 143.8 41.6003L144.1 36.9003H140.6C137 36.9003 137 36.9003 137 32.6003V28.2003L131.7 28.0003C128.8 27.9003 126.1 28.1003 125.7 28.5003Z" fill="#159696"/>
<path d="M326.3 28.5003C325.6 28.8003 325 30.8003 325 33.0003C325 36.5003 324.7 36.9003 322.5 36.9003C320.2 36.9003 320 37.2003 320 42.0003C320 46.9003 320.1 47.1003 322.5 46.7003L325 46.2003V62.6003V79.1003L327.9 82.0003C330.5 84.6003 331.5 84.9003 336.9 84.9003H343V79.9003C343 75.0003 342.9 74.9003 340 74.9003H337V60.6003V46.2003L340 46.7003C343 47.1003 343 47.1003 343 42.0003C343 37.0003 342.9 36.9003 340 36.9003C337.1 36.9003 337 36.7003 337 32.6003V28.3003L332.3 28.1003C329.6 28.1003 326.9 28.3003 326.3 28.5003Z" fill="#159696"/>
<path d="M64.3 39.3003L61.5 41.7003V60.9003V80.1003L64.3 82.5003C66.5 84.3003 68.3 84.9003 72.1 84.9003C74.9 84.9003 78 84.4003 79.1 83.9003C80.4 83.2003 81 83.2003 81 83.9003C81 84.5003 83.5 84.9003 87 84.9003H93V60.9003V36.9003H87C83.5 36.9003 81 37.3003 81 37.9003C81 38.6003 80.4 38.6003 79.1 37.9003C78 37.4003 74.9 36.9003 72.1 36.9003C68.3 36.9003 66.5 37.5003 64.3 39.3003ZM80.8 60.3003C81.1 74.3003 80.5 76.2003 76.1 75.7003L73.5 75.4003L73.2 61.1003L72.9 46.8003L76.7 47.1003L80.5 47.4003L80.8 60.3003Z" fill="#159696"/>
<path d="M95 60.9003L94.9 84.9003H101.5H108V67.6003C108 58.2003 108.4 49.8003 108.9 49.1003C109.3 48.3003 111.6 47.5003 113.9 47.2003L118 46.6003V41.8003C118 37.0003 118 36.9003 114.8 36.9003C112.9 36.9003 110.7 37.8003 109.2 39.1003L106.8 41.4003L107.4 39.1003C108.1 37.0003 107.9 36.9003 101.6 36.9003H95.1L95 60.9003Z" fill="#159696"/>
<path d="M147 58.4003C147 80.0003 147 80.0003 149.5 82.4003C151.5 84.5003 152.9 84.9003 157.8 84.9003C161 84.9003 164.1 84.4003 164.8 83.7003C165.7 82.8003 166 82.8003 166 83.7003C166 84.5003 168 84.9003 172 84.9003H178V60.9003V36.9003H172H166L165.8 56.1003L165.5 75.4003H162.5H159.5L159.2 56.1003L159 36.9003H153H147V58.4003Z" fill="#159696"/>
<path d="M181 67.4003V97.9003H187H193V90.2003C193 84.2003 193.3 82.8003 194.2 83.7003C195.9 85.4003 206.1 85.2003 208.7 83.4003C212 81.1003 213 75.8003 212.9 60.4003C212.9 44.9003 211.8 40.1003 208 38.2003C205 36.7003 197.6 36.5003 194.9 37.9003C193.6 38.6003 193 38.6003 193 37.9003C193 37.3003 190.5 36.9003 187 36.9003H181V67.4003ZM199.8 61.1003L199.5 75.4003H196.5H193.5L193.2 61.1003L192.9 46.9003H196.5H200.1L199.8 61.1003Z" fill="#159696"/>
<path d="M253.8 38.4003C252.1 39.4003 250.7 41.3003 250.1 43.7003C248.6 48.8003 248.8 74.5003 250.3 78.9003C252 83.8003 254.9 84.9003 266.3 84.9003C275.9 84.9003 276.2 84.8003 279.1 82.0003L282 79.1003V60.9003V42.7003L279.1 39.8003C276.2 37.0003 275.9 36.9003 266.3 36.9003C259.6 37.0003 255.6 37.5003 253.8 38.4003ZM270 61.0003V76.0003L265.8 75.7003L261.5 75.4003L261.2 62.0003C261.1 54.6003 261.2 47.9003 261.4 47.2003C261.7 46.4003 263.6 45.9003 266 45.9003H270V61.0003Z" fill="#159696"/>
<path d="M287.9 39.8003L285 42.7003V60.9003V79.1003L287.9 82.0003C290.7 84.8003 291.2 84.9003 300.5 84.9003C310.5 84.9003 315.1 83.6003 316.4 80.4003C316.7 79.5003 317 70.5003 317 60.4003V42.1003L313.9 39.5003C311.1 37.1003 310.1 36.9003 300.8 36.9003C291.1 36.9003 290.8 37.0003 287.9 39.8003ZM305.2 59.9003C305.4 67.6003 305.4 74.4003 305.2 74.9003C305 75.5003 303.1 75.9003 300.9 75.9003H297V60.9003V45.9003H300.9H304.9L305.2 59.9003Z" fill="#159696"/>
<path d="M349.3 39.3003L346.5 41.7003L346.2 60.3003L345.9 78.9003L348.9 81.9003C351.8 84.8003 352.1 84.9003 361.9 84.9003C370.9 84.9003 372.1 84.7003 374.6 82.6003C376.9 80.6003 377.4 79.2003 377.8 74.1003L378.2 67.9003H372.2H366.1L365.8 71.6003C365.5 75.2003 365.3 75.4003 362 75.4003H358.5L358.2 61.1003L357.9 46.9003H362C365.9 46.9003 366 47.0003 366 50.4003V53.9003H372H378V50.5003C378 39.4003 375 36.9003 361.3 36.9003C353 36.9003 351.8 37.1003 349.3 39.3003Z" fill="#159696"/>
<path d="M385 38.2003C381.2 40.1003 380.1 44.9003 380.1 60.4003C380 75.8003 381 81.1003 384.3 83.4003C386.9 85.2003 397.1 85.4003 398.8 83.7003C399.7 82.8003 400 82.8003 400 83.7003C400 84.5003 402 84.9003 406 84.9003H412V60.9003V36.9003H406C402 36.9003 400 37.3003 400 38.1003C400 39.0003 399.7 39.0003 398.8 38.1003C397.2 36.5003 388.2 36.6003 385 38.2003ZM399.8 61.1003L399.5 75.4003L396.3 75.7003L393 76.0003V61.5003V46.9003H396.5H400.1L399.8 61.1003Z" fill="#159696"/>
<path d="M415 60.9003V84.9003H421H427V65.9003V46.9003H430.5H434V65.9003V84.9003H440H446L446.2 66.1003L446.5 47.4003L450.3 47.1003L454 46.8003V65.8003V84.9003H460.1H466.1L465.8 63.3003L465.5 41.7003L462.7 39.3003C458.9 36.1003 450.5 35.9003 446.6 39.0003C445.2 40.1003 444 40.6003 444 40.1003C444 37.3003 430.7 35.6003 428.2 38.1003C427.3 39.0003 427 39.0003 427 38.1003C427 37.3003 425 36.9003 421 36.9003H415V60.9003Z" fill="#159696"/>
<path d="M469 67.4003V97.9003H475H481V90.2003C481 84.2003 481.3 82.8003 482.2 83.7003C483.8 85.3003 494 85.2003 496.1 83.6003C499.5 81.0003 500 78.2003 500 60.4003V42.7003L497.1 39.8003C494.6 37.3003 493.4 36.9003 488.8 36.9003C485.8 36.9003 482.9 37.4003 482.3 38.0003C481.5 38.8003 481 38.8003 480.6 38.0003C480.2 37.4003 477.4 36.9003 474.4 36.9003H469V67.4003ZM487.8 61.1003L487.5 75.4003H484.5H481.5L481.2 61.1003L480.9 46.9003H484.5H488.1L487.8 61.1003Z" fill="#159696"/>
</svg>
