<svg width="38" height="38" viewBox="0 0 38 38" fill="none" xmlns="http://www.w3.org/2000/svg">
<path d="M30.8748 11.875L28.5156 14.2342L23.7656 9.48417L26.1248 7.125C26.7898 6.46 27.6448 6.14333 28.4998 6.14333C29.3548 6.14333 30.2098 6.46 30.8748 7.125C32.189 8.43917 32.189 10.5608 30.8748 11.875Z" fill="black"/>
<path d="M28.5159 14.2342L10.2918 32.4583C8.97761 33.7725 6.85594 33.7725 5.54178 32.4583C4.22761 31.1442 4.22761 29.0225 5.54178 27.7083L23.7659 9.48417L28.5159 14.2342Z" fill="#1596C1"/>
<path d="M15.7542 5.54167L16.4033 3.34083C16.4667 3.135 16.4033 2.91333 16.2608 2.755C16.1183 2.59667 15.865 2.53333 15.6592 2.59667L13.4583 3.24583L11.2575 2.59667C11.0517 2.53333 10.83 2.59667 10.6717 2.73917C10.5133 2.8975 10.4658 3.11917 10.5292 3.325L11.1625 5.54167L10.5133 7.7425C10.45 7.94833 10.5133 8.17 10.6558 8.32833C10.8142 8.48667 11.0358 8.53417 11.2417 8.47083L13.4583 7.8375L15.6592 8.48667C15.7225 8.5025 15.77 8.51833 15.8333 8.51833C15.9917 8.51833 16.1342 8.455 16.2608 8.34417C16.4192 8.18583 16.4667 7.96417 16.4033 7.75833L15.7542 5.54167Z" fill="black"/>
<path d="M9.42066 15.0417L10.0698 12.8408C10.1332 12.635 10.0698 12.4133 9.92732 12.255C9.76899 12.0967 9.54732 12.0492 9.34149 12.1125L7.12482 12.7458L4.92399 12.0967C4.71816 12.0333 4.49649 12.0967 4.33816 12.2392C4.17982 12.3975 4.13232 12.6192 4.19566 12.825L4.82899 15.0417L4.17982 17.2425C4.11649 17.4483 4.17982 17.67 4.32232 17.8283C4.48066 17.9867 4.70232 18.0342 4.90816 17.9708L7.10899 17.3217L9.30982 17.9708C9.35732 17.9867 9.42066 17.9867 9.48399 17.9867C9.64232 17.9867 9.78482 17.9233 9.91149 17.8125C10.0698 17.6542 10.1173 17.4325 10.054 17.2267L9.42066 15.0417Z" fill="black"/>
<path d="M33.1709 22.9583L33.82 20.7575C33.8834 20.5517 33.82 20.33 33.6775 20.1717C33.5192 20.0133 33.2975 19.9658 33.0917 20.0292L30.8909 20.6783L28.69 20.0292C28.4842 19.9658 28.2625 20.0292 28.1042 20.1717C27.9459 20.33 27.8984 20.5517 27.9617 20.7575L28.6109 22.9583L27.9617 25.1592C27.8984 25.365 27.9617 25.5867 28.1042 25.745C28.2625 25.9033 28.4842 25.9508 28.69 25.8875L30.8909 25.2383L33.0917 25.8875C33.1392 25.9033 33.2025 25.9033 33.2659 25.9033C33.4242 25.9033 33.5667 25.84 33.6934 25.7292C33.8517 25.5708 33.8992 25.3492 33.8359 25.1433L33.1709 22.9583Z" fill="black"/>
</svg>
